<svg width="588" height="628" viewBox="0 0 588 628" fill="none" xmlns="http://www.w3.org/2000/svg">
<path d="M147.327 606.139L0.417592 38.1288L276.853 17.9429L554.971 -0.000214366L416.473 606.139L147.327 606.139Z" fill="url(#paint0_linear_12_1057)"/>
<path d="M108.076 605.019C108.076 600.683 111.591 597.168 115.926 597.168H489.367C493.702 597.168 497.217 600.683 497.217 605.019H108.076Z" fill="#2268EA"/>
<path d="M46.3965 608.944C46.3965 606.776 48.1538 605.019 50.3215 605.019H497.216C497.216 609.354 493.702 612.869 489.366 612.869H50.3215C48.1538 612.869 46.3965 611.111 46.3965 608.944Z" fill="url(#paint1_linear_12_1057)"/>
<path d="M292.166 339.675L329.178 316.611L353.315 350.94L292.166 339.675Z" fill="#8ED9FF" stroke="#2268EA" stroke-width="1.12144"/>
<g filter="url(#filter0_i_12_1057)">
<rect x="79.8086" y="236" width="263" height="104.294" rx="26.9146" fill="#C7ECFF"/>
<rect x="80.6497" y="236.841" width="261.318" height="102.612" rx="26.0735" stroke="#0F9FE8" stroke-width="1.68216"/>
<path d="M117.735 281.783V280.598C118.327 280.563 118.749 280.437 119 280.222C119.269 280.006 119.44 279.683 119.511 279.253C119.583 278.822 119.619 278.275 119.619 277.611V266.414C119.619 266.02 119.628 265.643 119.646 265.284C119.664 264.907 119.682 264.584 119.7 264.315C119.395 264.333 119.063 264.351 118.704 264.369C118.345 264.387 118.022 264.405 117.735 264.423V262.942H124.356V264.127C123.782 264.145 123.36 264.27 123.091 264.504C122.822 264.719 122.651 265.042 122.58 265.472C122.508 265.885 122.472 266.432 122.472 267.114V271.501H131.381V266.414C131.381 266.02 131.39 265.643 131.408 265.284C131.426 264.907 131.444 264.584 131.462 264.315C131.156 264.333 130.825 264.351 130.466 264.369C130.107 264.387 129.784 264.405 129.497 264.423V262.942H136.118V264.127C135.544 264.145 135.122 264.27 134.853 264.504C134.584 264.719 134.413 265.042 134.341 265.472C134.27 265.885 134.234 266.432 134.234 267.114V278.176C134.234 278.661 134.225 279.1 134.207 279.495C134.207 279.872 134.189 280.177 134.153 280.41C134.458 280.374 134.79 280.356 135.149 280.356C135.508 280.338 135.831 280.32 136.118 280.302V281.783H129.497V280.598C130.089 280.563 130.511 280.437 130.762 280.222C131.031 280.006 131.201 279.683 131.273 279.253C131.345 278.822 131.381 278.275 131.381 277.611V272.901L122.472 272.982V278.176C122.472 278.661 122.463 279.1 122.445 279.495C122.445 279.872 122.427 280.177 122.391 280.41C122.696 280.374 123.028 280.356 123.387 280.356C123.764 280.338 124.087 280.32 124.356 280.302V281.783H117.735ZM138.467 280.652C139.005 280.652 139.382 280.527 139.597 280.275C139.812 280.024 139.938 279.674 139.974 279.226C140.028 278.777 140.055 278.257 140.055 277.665V272.093C140.055 271.788 140.064 271.483 140.082 271.178C140.1 270.855 140.126 270.514 140.162 270.156C139.857 270.174 139.534 270.191 139.193 270.209C138.852 270.209 138.538 270.218 138.251 270.236V268.81C139.059 268.81 139.696 268.774 140.162 268.702C140.647 268.612 141.015 268.514 141.266 268.406C141.535 268.298 141.732 268.182 141.858 268.056H142.881V278.445C142.881 278.768 142.872 279.1 142.854 279.441C142.836 279.764 142.809 280.096 142.773 280.437C143.06 280.419 143.347 280.41 143.634 280.41C143.939 280.392 144.217 280.374 144.469 280.356V281.783H138.467V280.652ZM141.32 265.58C140.853 265.58 140.458 265.41 140.135 265.069C139.812 264.71 139.651 264.279 139.651 263.777C139.651 263.274 139.821 262.853 140.162 262.512C140.503 262.153 140.889 261.974 141.32 261.974C141.786 261.974 142.172 262.153 142.477 262.512C142.8 262.853 142.961 263.274 142.961 263.777C142.961 264.279 142.8 264.71 142.477 265.069C142.172 265.41 141.786 265.58 141.32 265.58ZM148.422 286.681L147.588 286.062C147.785 285.811 147.992 285.452 148.207 284.986C148.44 284.519 148.629 283.999 148.772 283.425C148.934 282.868 148.988 282.321 148.934 281.783C148.808 281.837 148.692 281.872 148.584 281.89C148.494 281.908 148.395 281.917 148.288 281.917C147.911 281.917 147.579 281.792 147.292 281.54C147.005 281.271 146.861 280.912 146.861 280.464C146.861 279.944 147.014 279.531 147.319 279.226C147.642 278.903 148.028 278.741 148.476 278.741C149.176 278.741 149.696 278.993 150.037 279.495C150.396 279.979 150.576 280.59 150.576 281.325C150.576 281.81 150.486 282.375 150.306 283.021C150.145 283.667 149.903 284.304 149.58 284.932C149.257 285.578 148.871 286.161 148.422 286.681ZM167.172 264.127C166.598 264.145 166.177 264.27 165.907 264.504C165.638 264.719 165.468 265.042 165.396 265.472C165.324 265.885 165.288 266.432 165.288 267.114V278.176C165.288 278.661 165.279 279.1 165.261 279.495C165.261 279.872 165.243 280.177 165.208 280.41C165.513 280.374 165.845 280.356 166.203 280.356C166.58 280.338 166.903 280.32 167.172 280.302V281.783H160.551V280.598C161.144 280.563 161.565 280.437 161.816 280.222C162.086 280.006 162.256 279.683 162.328 279.253C162.4 278.822 162.435 278.275 162.435 277.611V266.414C162.435 266.02 162.444 265.643 162.462 265.284C162.48 264.907 162.498 264.584 162.516 264.315C162.211 264.333 161.879 264.351 161.52 264.369C161.161 264.387 160.838 264.405 160.551 264.423V262.942H167.172V264.127ZM171.241 269.267L170.407 268.648C170.604 268.397 170.81 268.038 171.026 267.572C171.259 267.105 171.447 266.594 171.591 266.038C171.752 265.463 171.806 264.907 171.752 264.369C171.627 264.423 171.51 264.459 171.402 264.477C171.313 264.495 171.214 264.504 171.106 264.504C170.73 264.504 170.398 264.378 170.11 264.127C169.823 263.858 169.68 263.499 169.68 263.05C169.68 262.53 169.832 262.117 170.137 261.812C170.46 261.489 170.846 261.328 171.295 261.328C171.995 261.328 172.515 261.579 172.856 262.081C173.215 262.566 173.394 263.176 173.394 263.911C173.394 264.396 173.304 264.961 173.125 265.607C172.963 266.253 172.721 266.899 172.398 267.545C172.075 268.173 171.689 268.747 171.241 269.267ZM174.922 281.783V280.652C175.461 280.652 175.837 280.527 176.053 280.275C176.268 280.024 176.394 279.674 176.43 279.226C176.483 278.777 176.51 278.257 176.51 277.665V272.067C176.51 271.779 176.51 271.474 176.51 271.151C176.528 270.811 176.564 270.479 176.618 270.156C176.313 270.174 175.99 270.191 175.649 270.209C175.308 270.209 174.994 270.218 174.707 270.236V268.81C175.514 268.81 176.142 268.774 176.591 268.702C177.058 268.612 177.407 268.514 177.641 268.406C177.892 268.298 178.08 268.182 178.206 268.056H179.175C179.211 268.236 179.229 268.451 179.229 268.702C179.247 268.935 179.265 269.187 179.282 269.456C179.839 268.989 180.467 268.612 181.167 268.325C181.884 268.038 182.575 267.895 183.239 267.895C184.118 267.895 184.845 268.056 185.419 268.379C186.011 268.684 186.478 269.124 186.819 269.698C187.447 269.178 188.155 268.747 188.945 268.406C189.734 268.065 190.506 267.895 191.259 267.895C192.785 267.895 193.915 268.352 194.651 269.267C195.386 270.165 195.745 271.672 195.727 273.789L195.7 278.445C195.7 278.768 195.691 279.1 195.673 279.441C195.673 279.764 195.647 280.096 195.593 280.437C195.88 280.419 196.176 280.41 196.481 280.41C196.786 280.392 197.064 280.374 197.315 280.356V281.783H191.394V280.652C191.896 280.652 192.246 280.527 192.444 280.275C192.659 280.024 192.785 279.674 192.821 279.226C192.874 278.777 192.901 278.257 192.901 277.665V273.789C192.883 272.372 192.65 271.331 192.202 270.667C191.753 270.003 191.071 269.671 190.156 269.671C189.636 269.671 189.124 269.788 188.622 270.021C188.119 270.236 187.671 270.514 187.276 270.855C187.366 271.16 187.429 271.501 187.465 271.878C187.518 272.237 187.545 272.614 187.545 273.009C187.527 273.906 187.518 274.812 187.518 275.727C187.518 276.624 187.518 277.53 187.518 278.445C187.518 278.768 187.509 279.1 187.491 279.441C187.474 279.764 187.447 280.096 187.411 280.437C187.698 280.419 187.985 280.41 188.272 280.41C188.577 280.392 188.855 280.374 189.106 280.356V281.783H183.131V280.652C183.67 280.652 184.037 280.527 184.235 280.275C184.45 280.024 184.576 279.674 184.612 279.226C184.665 278.777 184.692 278.257 184.692 277.665V273.762C184.71 272.345 184.504 271.304 184.073 270.64C183.661 269.958 182.997 269.626 182.082 269.644C181.561 269.644 181.059 269.761 180.574 269.994C180.09 270.209 179.668 270.488 179.309 270.828C179.309 271.044 179.309 271.268 179.309 271.501C179.327 271.735 179.336 271.986 179.336 272.255V278.445C179.336 278.768 179.327 279.1 179.309 279.441C179.291 279.764 179.265 280.096 179.229 280.437C179.516 280.419 179.803 280.41 180.09 280.41C180.377 280.392 180.646 280.374 180.897 280.356V281.783H174.922ZM206.574 281.783V280.598C207.166 280.563 207.588 280.437 207.839 280.222C208.108 280.006 208.279 279.683 208.351 279.253C208.422 278.822 208.458 278.275 208.458 277.611V266.414C208.458 266.02 208.467 265.643 208.485 265.284C208.503 264.907 208.521 264.584 208.539 264.315C208.234 264.333 207.902 264.351 207.543 264.369C207.184 264.387 206.861 264.405 206.574 264.423V262.942H213.195V264.127C212.621 264.145 212.199 264.27 211.93 264.504C211.661 264.719 211.491 265.042 211.419 265.472C211.347 265.885 211.311 266.432 211.311 267.114V278.257C211.311 278.741 211.302 279.172 211.284 279.549C211.284 279.908 211.266 280.204 211.231 280.437L215.779 280.383C216.892 280.365 217.744 280.006 218.336 279.307C218.928 278.589 219.224 277.458 219.224 275.915H220.435L220.274 281.783H206.574ZM228.561 282.213C227.305 282.213 226.175 281.926 225.17 281.352C224.183 280.76 223.403 279.935 222.828 278.876C222.254 277.799 221.967 276.534 221.967 275.081C221.967 273.825 222.245 272.65 222.802 271.555C223.376 270.461 224.174 269.581 225.197 268.918C226.22 268.236 227.404 267.895 228.75 267.895C229.503 267.895 230.212 268.011 230.876 268.245C231.558 268.478 232.159 268.846 232.679 269.348C233.217 269.833 233.639 270.47 233.944 271.259C234.249 272.031 234.402 272.973 234.402 274.085L225.143 274.247C225.143 275.467 225.278 276.552 225.547 277.503C225.834 278.454 226.291 279.19 226.919 279.71C227.547 280.231 228.364 280.491 229.369 280.491C229.853 280.491 230.365 280.41 230.903 280.249C231.459 280.069 231.979 279.818 232.464 279.495C232.966 279.172 233.388 278.786 233.729 278.338L234.563 279.064C234.025 279.872 233.406 280.509 232.706 280.975C232.006 281.424 231.289 281.738 230.553 281.917C229.835 282.115 229.171 282.213 228.561 282.213ZM225.251 272.847H231.468C231.468 272.165 231.369 271.555 231.172 271.017C230.993 270.461 230.705 270.021 230.311 269.698C229.916 269.375 229.414 269.214 228.803 269.214C227.853 269.214 227.072 269.519 226.462 270.129C225.852 270.721 225.448 271.627 225.251 272.847ZM242.907 289.077C241.328 289.077 240.054 288.897 239.085 288.538C238.134 288.197 237.443 287.749 237.013 287.193C236.6 286.654 236.394 286.08 236.394 285.47C236.394 284.986 236.501 284.537 236.717 284.124C236.95 283.712 237.255 283.344 237.632 283.021C238.009 282.716 238.43 282.474 238.897 282.294C238.269 282.097 237.793 281.819 237.47 281.46C237.147 281.083 236.986 280.625 236.986 280.087C236.986 279.513 237.21 278.948 237.659 278.391C238.125 277.835 238.789 277.458 239.65 277.261C238.843 276.902 238.197 276.382 237.713 275.7C237.228 275.018 236.977 274.211 236.959 273.278C236.941 272.201 237.21 271.259 237.766 270.452C238.341 269.644 239.067 269.016 239.947 268.568C240.844 268.119 241.777 267.895 242.746 267.895C243.302 267.895 243.876 267.976 244.468 268.137C245.06 268.281 245.599 268.514 246.083 268.837C246.28 268.316 246.541 267.841 246.864 267.41C247.187 266.98 247.563 266.639 247.994 266.388C248.443 266.136 248.909 266.011 249.394 266.011C249.914 266.011 250.309 266.145 250.578 266.414C250.847 266.684 250.982 267.042 250.982 267.491C250.982 267.635 250.937 267.814 250.847 268.029C250.775 268.227 250.641 268.397 250.443 268.541C250.246 268.684 249.977 268.756 249.636 268.756C249.349 268.756 249.089 268.666 248.855 268.487C248.64 268.29 248.505 268.056 248.452 267.787C248.075 267.859 247.761 268.083 247.51 268.46C247.276 268.819 247.124 269.187 247.052 269.563C247.519 269.976 247.877 270.47 248.129 271.044C248.398 271.6 248.532 272.201 248.532 272.847C248.532 273.87 248.254 274.776 247.698 275.565C247.16 276.355 246.451 276.974 245.572 277.423C244.693 277.871 243.742 278.095 242.719 278.095C242.414 278.095 242.127 278.077 241.857 278.042C241.588 277.988 241.292 277.961 240.969 277.961C240.395 277.961 239.92 278.095 239.543 278.365C239.184 278.634 239.049 278.957 239.139 279.333C239.229 279.728 239.606 279.988 240.27 280.114C240.933 280.24 241.893 280.329 243.149 280.383C244.531 280.437 245.715 280.607 246.702 280.895C247.707 281.164 248.478 281.585 249.017 282.16C249.573 282.734 249.851 283.514 249.851 284.501C249.851 285.237 249.645 285.892 249.232 286.466C248.837 287.04 248.299 287.516 247.617 287.892C246.953 288.287 246.209 288.583 245.383 288.781C244.558 288.978 243.733 289.077 242.907 289.077ZM243.149 287.758C244.603 287.758 245.724 287.489 246.514 286.95C247.321 286.412 247.725 285.802 247.725 285.12C247.725 284.546 247.528 284.097 247.133 283.774C246.738 283.469 246.182 283.245 245.464 283.102C244.764 282.976 243.939 282.904 242.988 282.886C242.521 282.85 242.046 282.823 241.561 282.805C241.077 282.788 240.628 282.743 240.216 282.671C239.803 282.958 239.48 283.308 239.247 283.721C239.031 284.133 238.915 284.564 238.897 285.012C238.897 285.838 239.283 286.502 240.054 287.004C240.826 287.507 241.857 287.758 243.149 287.758ZM242.8 276.83C243.41 276.83 243.912 276.678 244.307 276.373C244.719 276.05 245.024 275.628 245.222 275.108C245.437 274.57 245.545 273.986 245.545 273.358C245.545 272.623 245.437 271.932 245.222 271.286C245.007 270.64 244.693 270.12 244.28 269.725C243.867 269.33 243.338 269.133 242.692 269.133C241.813 269.133 241.131 269.483 240.646 270.183C240.162 270.882 239.92 271.726 239.92 272.712C239.92 273.502 240.027 274.211 240.243 274.839C240.476 275.449 240.808 275.933 241.238 276.292C241.669 276.651 242.189 276.83 242.8 276.83ZM259.453 281.783C259.417 281.496 259.39 281.244 259.372 281.029C259.354 280.814 259.328 280.59 259.292 280.356C258.682 280.966 258.027 281.433 257.327 281.756C256.627 282.061 255.9 282.213 255.147 282.213C253.855 282.213 252.877 281.899 252.213 281.271C251.567 280.625 251.244 279.827 251.244 278.876C251.244 278.051 251.486 277.333 251.971 276.723C252.455 276.113 253.092 275.619 253.882 275.242C254.671 274.848 255.533 274.561 256.466 274.381C257.399 274.184 258.314 274.085 259.211 274.085V272.497C259.211 271.923 259.157 271.394 259.049 270.909C258.942 270.407 258.717 270.003 258.377 269.698C258.054 269.375 257.542 269.214 256.842 269.214C256.376 269.196 255.909 269.285 255.443 269.483C254.976 269.662 254.617 269.967 254.366 270.398C254.51 270.541 254.6 270.712 254.635 270.909C254.689 271.089 254.716 271.259 254.716 271.421C254.716 271.672 254.609 271.959 254.393 272.282C254.178 272.587 253.81 272.73 253.29 272.712C252.859 272.712 252.527 272.569 252.294 272.282C252.079 271.977 251.971 271.627 251.971 271.232C251.971 270.586 252.204 270.012 252.671 269.51C253.155 269.007 253.81 268.612 254.635 268.325C255.461 268.038 256.385 267.895 257.408 267.895C258.951 267.895 260.099 268.298 260.853 269.106C261.624 269.913 262.01 271.187 262.01 272.928C262.01 273.574 262.01 274.193 262.01 274.785C262.01 275.377 262.001 275.969 261.983 276.561C261.983 277.153 261.983 277.781 261.983 278.445C261.983 278.714 261.974 279.019 261.956 279.36C261.938 279.701 261.911 280.06 261.875 280.437C262.18 280.419 262.494 280.401 262.817 280.383C263.14 280.365 263.445 280.356 263.733 280.356V281.783H259.453ZM259.211 275.323C258.637 275.359 258.045 275.44 257.435 275.565C256.842 275.691 256.304 275.879 255.82 276.131C255.335 276.382 254.94 276.705 254.635 277.1C254.348 277.494 254.205 277.97 254.205 278.526C254.241 279.136 254.438 279.585 254.797 279.872C255.174 280.159 255.613 280.302 256.116 280.302C256.744 280.302 257.3 280.186 257.784 279.953C258.269 279.701 258.744 279.36 259.211 278.93C259.193 278.732 259.184 278.535 259.184 278.338C259.184 278.122 259.184 277.898 259.184 277.665C259.184 277.503 259.184 277.207 259.184 276.777C259.202 276.328 259.211 275.844 259.211 275.323ZM265.147 280.652C265.685 280.652 266.062 280.527 266.277 280.275C266.493 280.024 266.618 279.674 266.654 279.226C266.708 278.777 266.735 278.257 266.735 277.665V265.499C266.735 265.194 266.735 264.889 266.735 264.584C266.753 264.261 266.78 263.92 266.816 263.562C266.511 263.579 266.188 263.597 265.847 263.615C265.506 263.615 265.201 263.624 264.932 263.642V262.216C265.739 262.216 266.376 262.18 266.843 262.108C267.327 262.018 267.695 261.92 267.946 261.812C268.215 261.704 268.413 261.588 268.538 261.462H269.561V278.445C269.561 278.768 269.552 279.1 269.534 279.441C269.516 279.764 269.489 280.096 269.453 280.437C269.74 280.419 270.028 280.41 270.315 280.41C270.62 280.392 270.898 280.374 271.149 280.356V281.783H265.147V280.652ZM278.977 281.783V280.572C279.515 280.572 279.928 280.428 280.215 280.141C280.502 279.854 280.745 279.468 280.942 278.984C281.139 278.481 281.355 277.925 281.588 277.315L287.025 262.431H288.101L293.996 277.53C294.139 277.871 294.301 278.338 294.48 278.93C294.659 279.504 294.74 279.997 294.722 280.41C295.027 280.374 295.323 280.356 295.61 280.356C295.915 280.338 296.203 280.32 296.472 280.302V281.783H289.931V280.598C290.559 280.581 290.972 280.446 291.169 280.195C291.385 279.926 291.466 279.603 291.412 279.226C291.376 278.849 291.286 278.472 291.143 278.095L290.335 275.915L283.741 276.077L282.961 278.418C282.853 278.777 282.736 279.118 282.611 279.441C282.485 279.764 282.359 280.078 282.234 280.383C282.557 280.347 282.898 280.329 283.257 280.329C283.633 280.311 283.965 280.293 284.252 280.275V281.783H278.977ZM284.226 274.623H289.878L288.182 270.075C287.967 269.483 287.76 268.9 287.563 268.325C287.366 267.733 287.186 267.168 287.025 266.63H286.998C286.854 267.078 286.693 267.572 286.513 268.11C286.334 268.648 286.127 269.232 285.894 269.86L284.226 274.623ZM304.321 264.127C303.747 264.145 303.325 264.27 303.056 264.504C302.787 264.719 302.617 265.042 302.545 265.472C302.473 265.885 302.437 266.432 302.437 267.114V278.176C302.437 278.661 302.428 279.1 302.41 279.495C302.41 279.872 302.392 280.177 302.357 280.41C302.662 280.374 302.993 280.356 303.352 280.356C303.729 280.338 304.052 280.32 304.321 280.302V281.783H297.7V280.598C298.292 280.563 298.714 280.437 298.965 280.222C299.234 280.006 299.405 279.683 299.477 279.253C299.548 278.822 299.584 278.275 299.584 277.611V266.414C299.584 266.02 299.593 265.643 299.611 265.284C299.629 264.907 299.647 264.584 299.665 264.315C299.36 264.333 299.028 264.351 298.669 264.369C298.31 264.387 297.987 264.405 297.7 264.423V262.942H304.321V264.127Z" fill="black"/>
<path d="M132.513 300.138H134.038V313.865C134.038 314.298 134.158 314.642 134.397 314.897C134.636 315.136 134.973 315.255 135.407 315.255C135.571 315.255 135.765 315.233 135.99 315.188C136.214 315.143 136.423 315.084 136.618 315.009L136.887 316.242C136.603 316.362 136.251 316.459 135.833 316.534C135.429 316.609 135.078 316.646 134.778 316.646C134.076 316.646 133.522 316.452 133.119 316.063C132.715 315.659 132.513 315.098 132.513 314.381V300.138ZM143.474 316.736C142.621 316.736 141.836 316.579 141.119 316.265C140.401 315.936 139.78 315.495 139.257 314.941C138.734 314.373 138.322 313.723 138.023 312.99C137.739 312.257 137.597 311.472 137.597 310.635C137.597 309.813 137.739 309.043 138.023 308.325C138.322 307.592 138.734 306.957 139.257 306.418C139.78 305.865 140.393 305.432 141.096 305.118C141.814 304.789 142.599 304.624 143.451 304.624C144.303 304.624 145.081 304.789 145.784 305.118C146.501 305.432 147.114 305.865 147.623 306.418C148.131 306.972 148.528 307.607 148.812 308.325C149.096 309.043 149.238 309.805 149.238 310.613C149.238 310.732 149.23 310.852 149.215 310.972C149.215 311.091 149.208 311.173 149.193 311.218H139.212C139.257 311.846 139.399 312.429 139.638 312.968C139.892 313.491 140.206 313.947 140.58 314.336C140.969 314.725 141.41 315.031 141.904 315.255C142.412 315.465 142.95 315.569 143.518 315.569C143.907 315.569 144.288 315.517 144.662 315.412C145.036 315.308 145.38 315.166 145.694 314.986C146.008 314.807 146.285 314.59 146.524 314.336C146.778 314.067 146.972 313.775 147.107 313.461L148.43 313.82C148.251 314.254 147.997 314.65 147.668 315.009C147.339 315.353 146.957 315.659 146.524 315.928C146.09 316.183 145.612 316.377 145.088 316.511C144.565 316.661 144.027 316.736 143.474 316.736ZM147.78 310.052C147.735 309.424 147.585 308.856 147.331 308.347C147.092 307.824 146.778 307.375 146.389 307.002C146.015 306.628 145.574 306.336 145.066 306.127C144.558 305.918 144.019 305.813 143.451 305.813C142.883 305.813 142.345 305.918 141.836 306.127C141.328 306.336 140.879 306.628 140.49 307.002C140.117 307.375 139.81 307.824 139.571 308.347C139.347 308.871 139.212 309.439 139.167 310.052H147.78ZM157.066 315.951C156.976 315.996 156.842 316.055 156.662 316.13C156.498 316.205 156.304 316.28 156.079 316.354C155.855 316.429 155.601 316.497 155.317 316.556C155.033 316.616 154.734 316.646 154.42 316.646C154.091 316.646 153.777 316.601 153.477 316.511C153.178 316.422 152.917 316.287 152.692 316.108C152.468 315.913 152.289 315.674 152.154 315.39C152.02 315.106 151.952 314.777 151.952 314.403V306.037H150.337V304.826H151.952V300.879H153.477V304.826H156.169V306.037H153.477V313.977C153.507 314.411 153.657 314.732 153.926 314.941C154.195 315.136 154.517 315.233 154.891 315.233C155.324 315.233 155.705 315.166 156.034 315.031C156.363 314.882 156.573 314.777 156.662 314.717L157.066 315.951ZM158.281 300.138C158.505 300.138 158.722 300.168 158.932 300.228C159.141 300.273 159.328 300.355 159.492 300.475C159.657 300.58 159.791 300.729 159.896 300.923C160.001 301.103 160.053 301.32 160.053 301.574V304.265H158.752V301.776C158.752 301.581 158.7 301.454 158.595 301.394C158.49 301.335 158.386 301.305 158.281 301.305V300.138ZM166.904 316.736C165.992 316.736 165.102 316.586 164.235 316.287C163.368 315.988 162.62 315.555 161.992 314.986L162.687 313.955C163.345 314.493 164.011 314.897 164.684 315.166C165.371 315.435 166.104 315.569 166.882 315.569C167.824 315.569 168.571 315.383 169.124 315.009C169.693 314.62 169.977 314.074 169.977 313.371C169.977 313.042 169.902 312.773 169.752 312.564C169.603 312.34 169.379 312.145 169.08 311.981C168.795 311.816 168.429 311.674 167.981 311.555C167.547 311.42 167.039 311.286 166.455 311.151C165.783 310.987 165.199 310.822 164.706 310.658C164.213 310.493 163.801 310.306 163.472 310.097C163.158 309.887 162.919 309.633 162.755 309.334C162.605 309.02 162.53 308.631 162.53 308.168C162.53 307.585 162.642 307.069 162.867 306.62C163.106 306.172 163.42 305.805 163.809 305.521C164.213 305.222 164.676 304.998 165.199 304.848C165.738 304.699 166.306 304.624 166.904 304.624C167.801 304.624 168.616 304.774 169.349 305.073C170.081 305.357 170.672 305.738 171.121 306.217L170.38 307.114C169.947 306.665 169.416 306.329 168.788 306.104C168.175 305.88 167.532 305.768 166.859 305.768C166.455 305.768 166.082 305.813 165.738 305.903C165.394 305.977 165.087 306.104 164.818 306.284C164.564 306.463 164.362 306.695 164.213 306.979C164.063 307.248 163.988 307.57 163.988 307.944C163.988 308.258 164.041 308.512 164.145 308.706C164.25 308.901 164.422 309.073 164.661 309.222C164.9 309.357 165.199 309.484 165.558 309.603C165.932 309.708 166.381 309.82 166.904 309.94C167.652 310.119 168.31 310.299 168.878 310.478C169.446 310.658 169.917 310.867 170.291 311.106C170.679 311.345 170.971 311.637 171.165 311.981C171.36 312.325 171.457 312.743 171.457 313.237C171.457 314.313 171.046 315.166 170.223 315.794C169.401 316.422 168.295 316.736 166.904 316.736ZM184.38 316.668C183.572 316.668 182.832 316.504 182.159 316.175C181.501 315.831 180.926 315.383 180.432 314.829C179.954 314.276 179.58 313.641 179.311 312.923C179.042 312.205 178.907 311.465 178.907 310.702C178.907 309.895 179.034 309.125 179.288 308.392C179.558 307.645 179.931 306.994 180.41 306.441C180.888 305.888 181.456 305.447 182.114 305.118C182.787 304.789 183.527 304.624 184.335 304.624C185.337 304.624 186.204 304.878 186.937 305.387C187.669 305.88 188.297 306.508 188.821 307.271V304.826H190.189V316.556C190.189 317.364 190.032 318.074 189.718 318.687C189.419 319.315 189.008 319.838 188.484 320.257C187.976 320.676 187.37 320.99 186.667 321.199C185.965 321.408 185.225 321.513 184.447 321.513C183.116 321.513 182.04 321.274 181.217 320.795C180.395 320.317 179.729 319.674 179.221 318.867L180.163 318.126C180.627 318.874 181.24 319.42 182.002 319.764C182.765 320.123 183.58 320.302 184.447 320.302C185.015 320.302 185.553 320.22 186.062 320.055C186.585 319.906 187.034 319.674 187.408 319.36C187.796 319.061 188.103 318.672 188.327 318.194C188.551 317.73 188.664 317.184 188.664 316.556V314.246C188.2 314.994 187.58 315.584 186.802 316.018C186.039 316.452 185.232 316.668 184.38 316.668ZM184.806 315.39C185.254 315.39 185.696 315.308 186.129 315.143C186.563 314.979 186.952 314.762 187.295 314.493C187.654 314.209 187.953 313.895 188.193 313.551C188.432 313.207 188.589 312.856 188.664 312.497V308.886C188.499 308.467 188.267 308.078 187.968 307.719C187.684 307.361 187.363 307.054 187.004 306.8C186.645 306.546 186.256 306.344 185.838 306.194C185.434 306.045 185.023 305.97 184.604 305.97C183.946 305.97 183.363 306.112 182.855 306.396C182.346 306.665 181.913 307.024 181.554 307.473C181.195 307.921 180.918 308.43 180.724 308.998C180.544 309.566 180.455 310.142 180.455 310.725C180.455 311.353 180.567 311.951 180.791 312.519C181.015 313.087 181.322 313.588 181.711 314.022C182.099 314.441 182.556 314.777 183.079 315.031C183.617 315.27 184.193 315.39 184.806 315.39ZM198.582 316.736C197.73 316.736 196.945 316.579 196.227 316.265C195.509 315.936 194.889 315.495 194.365 314.941C193.842 314.373 193.431 313.723 193.132 312.99C192.848 312.257 192.706 311.472 192.706 310.635C192.706 309.813 192.848 309.043 193.132 308.325C193.431 307.592 193.842 306.957 194.365 306.418C194.889 305.865 195.502 305.432 196.204 305.118C196.922 304.789 197.707 304.624 198.559 304.624C199.412 304.624 200.189 304.789 200.892 305.118C201.61 305.432 202.223 305.865 202.731 306.418C203.24 306.972 203.636 307.607 203.92 308.325C204.204 309.043 204.346 309.805 204.346 310.613C204.346 310.732 204.339 310.852 204.324 310.972C204.324 311.091 204.316 311.173 204.301 311.218H194.32C194.365 311.846 194.507 312.429 194.747 312.968C195.001 313.491 195.315 313.947 195.689 314.336C196.077 314.725 196.518 315.031 197.012 315.255C197.52 315.465 198.059 315.569 198.627 315.569C199.016 315.569 199.397 315.517 199.771 315.412C200.144 315.308 200.488 315.166 200.802 314.986C201.116 314.807 201.393 314.59 201.632 314.336C201.886 314.067 202.081 313.775 202.215 313.461L203.539 313.82C203.359 314.254 203.105 314.65 202.776 315.009C202.447 315.353 202.066 315.659 201.632 315.928C201.199 316.183 200.72 316.377 200.197 316.511C199.673 316.661 199.135 316.736 198.582 316.736ZM202.888 310.052C202.843 309.424 202.694 308.856 202.44 308.347C202.2 307.824 201.886 307.375 201.498 307.002C201.124 306.628 200.683 306.336 200.174 306.127C199.666 305.918 199.128 305.813 198.559 305.813C197.991 305.813 197.453 305.918 196.945 306.127C196.436 306.336 195.988 306.628 195.599 307.002C195.225 307.375 194.919 307.824 194.679 308.347C194.455 308.871 194.32 309.439 194.276 310.052H202.888ZM212.174 315.951C212.085 315.996 211.95 316.055 211.771 316.13C211.606 316.205 211.412 316.28 211.188 316.354C210.963 316.429 210.709 316.497 210.425 316.556C210.141 316.616 209.842 316.646 209.528 316.646C209.199 316.646 208.885 316.601 208.586 316.511C208.287 316.422 208.025 316.287 207.801 316.108C207.577 315.913 207.397 315.674 207.263 315.39C207.128 315.106 207.061 314.777 207.061 314.403V306.037H205.446V304.826H207.061V300.879H208.586V304.826H211.277V306.037H208.586V313.977C208.616 314.411 208.765 314.732 209.034 314.941C209.304 315.136 209.625 315.233 209.999 315.233C210.433 315.233 210.814 315.166 211.143 315.031C211.472 314.882 211.681 314.777 211.771 314.717L212.174 315.951ZM223.633 316.736C222.721 316.736 221.831 316.586 220.964 316.287C220.097 315.988 219.349 315.555 218.721 314.986L219.417 313.955C220.074 314.493 220.74 314.897 221.413 315.166C222.101 315.435 222.833 315.569 223.611 315.569C224.553 315.569 225.3 315.383 225.854 315.009C226.422 314.62 226.706 314.074 226.706 313.371C226.706 313.042 226.631 312.773 226.482 312.564C226.332 312.34 226.108 312.145 225.809 311.981C225.525 311.816 225.158 311.674 224.71 311.555C224.276 311.42 223.768 311.286 223.185 311.151C222.512 310.987 221.929 310.822 221.435 310.658C220.942 310.493 220.531 310.306 220.202 310.097C219.888 309.887 219.648 309.633 219.484 309.334C219.334 309.02 219.26 308.631 219.26 308.168C219.26 307.585 219.372 307.069 219.596 306.62C219.835 306.172 220.149 305.805 220.538 305.521C220.942 305.222 221.405 304.998 221.929 304.848C222.467 304.699 223.035 304.624 223.633 304.624C224.53 304.624 225.345 304.774 226.078 305.073C226.811 305.357 227.401 305.738 227.85 306.217L227.11 307.114C226.676 306.665 226.145 306.329 225.517 306.104C224.904 305.88 224.261 305.768 223.588 305.768C223.185 305.768 222.811 305.813 222.467 305.903C222.123 305.977 221.816 306.104 221.547 306.284C221.293 306.463 221.091 306.695 220.942 306.979C220.792 307.248 220.717 307.57 220.717 307.944C220.717 308.258 220.77 308.512 220.874 308.706C220.979 308.901 221.151 309.073 221.39 309.222C221.63 309.357 221.929 309.484 222.287 309.603C222.661 309.708 223.11 309.82 223.633 309.94C224.381 310.119 225.039 310.299 225.607 310.478C226.175 310.658 226.646 310.867 227.02 311.106C227.409 311.345 227.7 311.637 227.895 311.981C228.089 312.325 228.186 312.743 228.186 313.237C228.186 314.313 227.775 315.166 226.953 315.794C226.13 316.422 225.024 316.736 223.633 316.736ZM236.268 315.951C236.178 315.996 236.044 316.055 235.864 316.13C235.7 316.205 235.505 316.28 235.281 316.354C235.057 316.429 234.803 316.497 234.519 316.556C234.234 316.616 233.935 316.646 233.621 316.646C233.292 316.646 232.978 316.601 232.679 316.511C232.38 316.422 232.119 316.287 231.894 316.108C231.67 315.913 231.491 315.674 231.356 315.39C231.221 315.106 231.154 314.777 231.154 314.403V306.037H229.539V304.826H231.154V300.879H232.679V304.826H235.371V306.037H232.679V313.977C232.709 314.411 232.859 314.732 233.128 314.941C233.397 315.136 233.719 315.233 234.092 315.233C234.526 315.233 234.907 315.166 235.236 315.031C235.565 314.882 235.775 314.777 235.864 314.717L236.268 315.951ZM241.158 316.736C240.56 316.736 240.014 316.646 239.521 316.467C239.027 316.272 238.601 316.011 238.242 315.682C237.899 315.353 237.629 314.971 237.435 314.538C237.241 314.104 237.143 313.648 237.143 313.17C237.143 312.631 237.263 312.145 237.502 311.712C237.742 311.263 238.078 310.882 238.512 310.568C238.945 310.254 239.461 310.015 240.059 309.85C240.672 309.671 241.345 309.581 242.078 309.581C242.661 309.581 243.259 309.633 243.872 309.738C244.485 309.843 245.031 309.992 245.509 310.187V309.132C245.509 308.101 245.21 307.286 244.612 306.688C244.029 306.075 243.237 305.768 242.235 305.768C241.607 305.768 240.979 305.888 240.351 306.127C239.738 306.366 239.11 306.71 238.467 307.159L237.928 306.149C238.691 305.641 239.431 305.26 240.149 305.005C240.867 304.751 241.614 304.624 242.392 304.624C243.812 304.624 244.941 305.035 245.779 305.858C246.616 306.68 247.035 307.817 247.035 309.267V314.538C247.035 314.956 247.214 315.166 247.573 315.166V316.511C247.453 316.526 247.341 316.534 247.236 316.534C247.132 316.549 247.042 316.556 246.967 316.556C246.668 316.556 246.392 316.467 246.137 316.287C245.898 316.108 245.764 315.839 245.734 315.48L245.689 314.56C245.18 315.248 244.508 315.786 243.67 316.175C242.848 316.549 242.01 316.736 241.158 316.736ZM241.539 315.569C242.212 315.569 242.878 315.427 243.536 315.143C244.208 314.844 244.739 314.441 245.128 313.932C245.233 313.798 245.322 313.656 245.397 313.506C245.472 313.342 245.509 313.192 245.509 313.057V311.151C245.001 310.957 244.47 310.807 243.917 310.702C243.364 310.598 242.825 310.545 242.302 310.545C241.211 310.545 240.321 310.77 239.633 311.218C238.96 311.652 238.624 312.257 238.624 313.035C238.624 313.349 238.684 313.656 238.803 313.955C238.923 314.254 239.102 314.523 239.341 314.762C239.596 315.001 239.902 315.196 240.261 315.345C240.62 315.495 241.046 315.569 241.539 315.569ZM256.182 306.172C255.15 306.202 254.253 306.486 253.491 307.024C252.728 307.562 252.19 308.303 251.876 309.245V316.511H250.351V304.826H251.786V307.63C252.19 306.807 252.721 306.127 253.379 305.589C254.036 305.035 254.747 304.759 255.509 304.759C255.644 304.759 255.771 304.759 255.891 304.759C256.01 304.759 256.107 304.766 256.182 304.781V306.172ZM263.866 315.951C263.776 315.996 263.642 316.055 263.462 316.13C263.298 316.205 263.103 316.28 262.879 316.354C262.655 316.429 262.401 316.497 262.117 316.556C261.832 316.616 261.533 316.646 261.219 316.646C260.89 316.646 260.576 316.601 260.277 316.511C259.978 316.422 259.717 316.287 259.492 316.108C259.268 315.913 259.089 315.674 258.954 315.39C258.819 315.106 258.752 314.777 258.752 314.403V306.037H257.137V304.826H258.752V300.879H260.277V304.826H262.969V306.037H260.277V313.977C260.307 314.411 260.457 314.732 260.726 314.941C260.995 315.136 261.317 315.233 261.69 315.233C262.124 315.233 262.505 315.166 262.834 315.031C263.163 314.882 263.373 314.777 263.462 314.717L263.866 315.951ZM270.775 316.736C269.922 316.736 269.137 316.579 268.42 316.265C267.702 315.936 267.081 315.495 266.558 314.941C266.035 314.373 265.624 313.723 265.325 312.99C265.04 312.257 264.898 311.472 264.898 310.635C264.898 309.813 265.04 309.043 265.325 308.325C265.624 307.592 266.035 306.957 266.558 306.418C267.081 305.865 267.695 305.432 268.397 305.118C269.115 304.789 269.9 304.624 270.752 304.624C271.605 304.624 272.382 304.789 273.085 305.118C273.803 305.432 274.416 305.865 274.924 306.418C275.432 306.972 275.829 307.607 276.113 308.325C276.397 309.043 276.539 309.805 276.539 310.613C276.539 310.732 276.532 310.852 276.517 310.972C276.517 311.091 276.509 311.173 276.494 311.218H266.513C266.558 311.846 266.7 312.429 266.939 312.968C267.194 313.491 267.508 313.947 267.881 314.336C268.27 314.725 268.711 315.031 269.205 315.255C269.713 315.465 270.251 315.569 270.82 315.569C271.208 315.569 271.59 315.517 271.963 315.412C272.337 315.308 272.681 315.166 272.995 314.986C273.309 314.807 273.586 314.59 273.825 314.336C274.079 314.067 274.274 313.775 274.408 313.461L275.732 313.82C275.552 314.254 275.298 314.65 274.969 315.009C274.64 315.353 274.259 315.659 273.825 315.928C273.391 316.183 272.913 316.377 272.39 316.511C271.866 316.661 271.328 316.736 270.775 316.736ZM275.081 310.052C275.036 309.424 274.887 308.856 274.633 308.347C274.393 307.824 274.079 307.375 273.691 307.002C273.317 306.628 272.876 306.336 272.367 306.127C271.859 305.918 271.321 305.813 270.752 305.813C270.184 305.813 269.646 305.918 269.137 306.127C268.629 306.336 268.18 306.628 267.792 307.002C267.418 307.375 267.111 307.824 266.872 308.347C266.648 308.871 266.513 309.439 266.468 310.052H275.081ZM283.669 316.736C282.862 316.736 282.114 316.571 281.427 316.242C280.739 315.898 280.141 315.45 279.632 314.897C279.139 314.343 278.75 313.708 278.466 312.99C278.197 312.257 278.062 311.495 278.062 310.702C278.062 309.88 278.197 309.102 278.466 308.37C278.735 307.622 279.101 306.972 279.565 306.418C280.043 305.865 280.604 305.432 281.247 305.118C281.905 304.789 282.623 304.624 283.4 304.624C284.387 304.624 285.262 304.886 286.024 305.409C286.787 305.918 287.393 306.538 287.841 307.271V300.138H289.366V314.538C289.366 314.956 289.546 315.166 289.905 315.166V316.511C289.65 316.556 289.449 316.579 289.299 316.579C288.925 316.579 288.619 316.474 288.379 316.265C288.14 316.04 288.021 315.779 288.021 315.48V314.246C287.542 315.009 286.907 315.614 286.114 316.063C285.337 316.511 284.522 316.736 283.669 316.736ZM283.983 315.39C284.372 315.39 284.776 315.315 285.195 315.166C285.628 315.016 286.024 314.814 286.383 314.56C286.757 314.291 287.079 313.984 287.348 313.641C287.617 313.282 287.781 312.9 287.841 312.497V308.886C287.692 308.482 287.467 308.108 287.168 307.764C286.884 307.405 286.555 307.091 286.181 306.822C285.823 306.553 285.434 306.344 285.015 306.194C284.611 306.045 284.208 305.97 283.804 305.97C283.176 305.97 282.6 306.104 282.077 306.374C281.569 306.643 281.135 307.002 280.776 307.45C280.417 307.884 280.133 308.385 279.924 308.953C279.729 309.521 279.632 310.104 279.632 310.702C279.632 311.33 279.744 311.929 279.969 312.497C280.193 313.065 280.499 313.566 280.888 313.999C281.277 314.418 281.733 314.755 282.256 315.009C282.795 315.263 283.37 315.39 283.983 315.39Z" fill="black"/>
</g>
<g clip-path="url(#clip0_12_1057)">
<path d="M384.809 264C368.244 264 354.809 277.475 354.809 293.97V354H424.804C441.374 354 454.809 340.525 454.809 324.03V302.285C449.469 304.173 443.704 304.511 438.18 303.26C432.656 302.009 427.599 299.219 423.595 295.214C419.59 291.209 416.8 286.153 415.549 280.629C414.298 275.105 414.636 269.34 416.524 264H384.809ZM424.809 314H414.809V304H424.809V314ZM394.809 314H384.809V304H394.809V314ZM447.159 255.6C446.969 255.132 446.645 254.731 446.226 254.449C445.807 254.166 445.314 254.016 444.809 254.016C444.304 254.016 443.81 254.166 443.392 254.449C442.973 254.731 442.648 255.132 442.459 255.6L441.189 258.65C439.066 263.825 435.04 267.99 429.939 270.285L426.349 271.885C425.89 272.097 425.501 272.437 425.229 272.863C424.956 273.289 424.812 273.784 424.812 274.29C424.812 274.796 424.956 275.291 425.229 275.717C425.501 276.143 425.89 276.483 426.349 276.695L430.149 278.385C435.122 280.617 439.079 284.63 441.239 289.635L442.474 292.465C442.666 292.926 442.99 293.319 443.406 293.596C443.821 293.873 444.31 294.021 444.809 294.021C445.308 294.021 445.796 293.873 446.212 293.596C446.627 293.319 446.952 292.926 447.144 292.465L448.379 289.64C450.539 284.633 454.498 280.617 459.474 278.385L463.274 276.695C463.734 276.483 464.124 276.144 464.398 275.717C464.671 275.29 464.816 274.794 464.816 274.287C464.816 273.781 464.671 273.285 464.398 272.858C464.124 272.431 463.734 272.092 463.274 271.88L459.684 270.28C454.583 267.988 450.555 263.828 448.429 258.655L447.159 255.6Z" fill="url(#paint2_linear_12_1057)"/>
</g>
<defs>
<filter id="filter0_i_12_1057" x="79.8086" y="236" width="265" height="106.294" filterUnits="userSpaceOnUse" color-interpolation-filters="sRGB">
<feFlood flood-opacity="0" result="BackgroundImageFix"/>
<feBlend mode="normal" in="SourceGraphic" in2="BackgroundImageFix" result="shape"/>
<feColorMatrix in="SourceAlpha" type="matrix" values="0 0 0 0 0 0 0 0 0 0 0 0 0 0 0 0 0 0 127 0" result="hardAlpha"/>
<feOffset dx="2" dy="2"/>
<feGaussianBlur stdDeviation="3"/>
<feComposite in2="hardAlpha" operator="arithmetic" k2="-1" k3="1"/>
<feColorMatrix type="matrix" values="0 0 0 0 0.0823529 0 0 0 0 0.560784 0 0 0 0 0.913725 0 0 0 1 0"/>
<feBlend mode="normal" in2="shape" result="effect1_innerShadow_12_1057"/>
</filter>
<linearGradient id="paint0_linear_12_1057" x1="271.246" y1="30.2787" x2="314.982" y2="608.382" gradientUnits="userSpaceOnUse">
<stop stop-color="#DCF3FF"/>
<stop offset="1" stop-color="#B1E5FF"/>
</linearGradient>
<linearGradient id="paint1_linear_12_1057" x1="46.3965" y1="608.944" x2="497.216" y2="608.944" gradientUnits="userSpaceOnUse">
<stop stop-color="#E6F7FF"/>
<stop offset="1" stop-color="#0F9FE8"/>
</linearGradient>
<linearGradient id="paint2_linear_12_1057" x1="464.816" y1="303.689" x2="354.809" y2="303.689" gradientUnits="userSpaceOnUse">
<stop stop-color="#2268EA"/>
<stop offset="1" stop-color="#0F9FE8"/>
</linearGradient>
<clipPath id="clip0_12_1057">
<rect width="120" height="120" fill="white" transform="matrix(-1 0 0 1 464.809 249)"/>
</clipPath>
</defs>
</svg>
